<svg xmlns="http://www.w3.org/2000/svg" xmlns:xlink="http://www.w3.org/1999/xlink" width="500" zoomAndPan="magnify" viewBox="0 0 375 374.999991" height="500" preserveAspectRatio="xMidYMid meet" version="1.0"><defs><g/><clipPath id="ef92db0ab4"><path d="M 99.164062 71.996094 L 159.148438 71.996094 L 159.148438 291.875 L 99.164062 291.875 Z M 99.164062 71.996094 " clip-rule="nonzero"/></clipPath><clipPath id="040f6aafc8"><path d="M 132.886719 233.679688 L 192.871094 233.679688 L 192.871094 272.558594 L 132.886719 272.558594 Z M 132.886719 233.679688 " clip-rule="nonzero"/></clipPath><clipPath id="13e0a1ebb3"><path d="M 93 69 L 188 69 L 188 295 L 93 295 Z M 93 69 " clip-rule="nonzero"/></clipPath><clipPath id="e7378a73ca"><path d="M 84.21875 74.628906 L 183.707031 67.402344 L 199.898438 290.316406 L 100.410156 297.542969 Z M 84.21875 74.628906 " clip-rule="nonzero"/></clipPath><clipPath id="ce7c4b1a0b"><path d="M 84.21875 74.628906 L 183.707031 67.402344 L 199.898438 290.316406 L 100.410156 297.542969 Z M 84.21875 74.628906 " clip-rule="nonzero"/></clipPath></defs><rect x="-37.5" width="450" fill="#ffffff" y="-37.499999" height="449.999989" fill-opacity="1"/><rect x="-37.5" width="450" fill="#000000" y="-37.499999" height="449.999989" fill-opacity="1"/><g fill="#ffffff" fill-opacity="1"><g transform="translate(96.661691, 288.551532)"><g><path d="M 156.796875 0 C 152.128906 0 147.515625 -2.375 142.953125 -7.125 C 138.390625 -11.875 134.289062 -17.789062 130.65625 -24.875 C 127.019531 -31.957031 122.78125 -39.644531 117.9375 -47.9375 C 113.09375 -56.226562 108.25 -64.003906 103.40625 -71.265625 C 98.5625 -78.535156 92.410156 -84.6875 84.953125 -89.71875 C 77.503906 -94.75 69.585938 -97.445312 61.203125 -97.8125 L 61.203125 -63.15625 C 61.203125 -43.039062 61.804688 -29.394531 63.015625 -22.21875 C 64.234375 -15.039062 65.957031 -10.519531 68.1875 -8.65625 C 72.664062 -5.125 79.5625 -3.359375 88.875 -3.359375 L 89.4375 0 L 14.53125 0 L 15.09375 -3.359375 C 24.21875 -3.359375 30.925781 -5.035156 35.21875 -8.390625 C 38.757812 -11.179688 40.804688 -20.3125 41.359375 -35.78125 C 41.734375 -41.925781 41.921875 -51.050781 41.921875 -63.15625 L 41.921875 -133.875 C 41.921875 -154.550781 41.359375 -168.242188 40.234375 -174.953125 C 39.117188 -181.660156 37.445312 -185.851562 35.21875 -187.53125 C 30.925781 -190.695312 24.21875 -192.28125 15.09375 -192.28125 L 14.53125 -195.640625 L 79.375 -195.640625 C 126.320312 -195.640625 149.796875 -179.800781 149.796875 -148.125 C 149.796875 -134.519531 145 -123.109375 135.40625 -113.890625 C 125.8125 -104.671875 114.210938 -99.3125 100.609375 -97.8125 C 114.210938 -89.800781 126.789062 -75.082031 138.34375 -53.65625 C 142.8125 -45.269531 147.5625 -37.257812 152.59375 -29.625 C 163.59375 -12.113281 177.753906 -3.359375 195.078125 -3.359375 L 195.640625 0 Z M 61.203125 -189.203125 L 61.203125 -103.40625 L 78.8125 -103.40625 C 92.976562 -103.40625 104.71875 -107.035156 114.03125 -114.296875 C 123.34375 -121.566406 128 -132.378906 128 -146.734375 C 128 -175.046875 111.789062 -189.203125 79.375 -189.203125 Z M 61.203125 -189.203125 "/></g></g></g><g clip-path="url(#ef92db0ab4)"><path fill="#000000" d="M 99.164062 71.996094 L 159.148438 71.996094 L 159.148438 291.78125 L 99.164062 291.78125 Z M 99.164062 71.996094 " fill-opacity="1" fill-rule="nonzero"/></g><g clip-path="url(#040f6aafc8)"><path fill="#000000" d="M 132.886719 233.679688 L 192.875 233.679688 L 192.875 272.558594 L 132.886719 272.558594 Z M 132.886719 233.679688 " fill-opacity="1" fill-rule="nonzero"/></g><g clip-path="url(#13e0a1ebb3)"><g clip-path="url(#e7378a73ca)"><g clip-path="url(#ce7c4b1a0b)"><path fill="#ffffff" d="M 152.972656 123.40625 C 152.867188 123.332031 152.796875 123.21875 152.769531 123.082031 C 152.675781 122.628906 152.621094 122.171875 152.570312 121.714844 C 151.101562 116.679688 148.777344 111.910156 147.429688 106.847656 C 145.277344 98.742188 145.324219 89.476562 147.257812 81.355469 C 147.898438 78.628906 148.441406 75.90625 149.304688 73.222656 C 149.433594 72.796875 149.578125 72.023438 149.769531 71.351562 C 149.929688 70.800781 150.15625 70.324219 150.414062 70.042969 C 150.582031 69.871094 150.742188 69.878906 150.863281 69.871094 C 151.023438 69.878906 151.148438 69.949219 151.257812 70.101562 C 151.304688 70.160156 151.351562 70.253906 151.359375 70.394531 C 151.367188 70.472656 151.355469 70.617188 151.363281 70.695312 C 151.378906 71.195312 151.394531 71.691406 151.410156 72.191406 C 151.441406 73.410156 151.550781 74.640625 151.738281 75.847656 C 152.3125 79.347656 152.914062 82.964844 154 86.34375 C 156.28125 93.519531 156.789062 101.34375 155.648438 108.789062 C 155.117188 112.207031 153.945312 115.355469 153.625 118.65625 L 153.628906 118.675781 C 154.441406 122.457031 155.082031 126.292969 155.460938 130.164062 C 155.808594 133.800781 155.914062 137.453125 155.65625 141.113281 C 155.574219 142.441406 155.429688 143.75 155.246094 145.0625 C 156.164062 143.136719 157.148438 141.265625 158.179688 139.46875 C 159.53125 137.132812 160.824219 134.597656 162.59375 132.527344 C 165.488281 129.136719 168.925781 126.609375 172.347656 123.839844 C 173.800781 122.671875 175.453125 121.753906 176.953125 120.644531 C 178.605469 119.421875 180.164062 118.03125 181.835938 116.808594 C 182.863281 116.054688 183.84375 115.261719 184.847656 114.488281 C 185.152344 114.246094 185.433594 114.027344 185.714844 113.765625 C 185.828125 113.65625 185.96875 113.40625 186.082031 113.300781 C 186.195312 113.191406 186.308594 113.121094 186.386719 113.097656 C 186.5625 113.042969 186.707031 113.074219 186.832031 113.164062 C 186.9375 113.238281 187.066406 113.347656 187.101562 113.585938 C 187.171875 113.960938 187.042969 114.429688 186.820312 114.925781 C 186.5625 115.484375 186.164062 116.09375 185.972656 116.46875 C 184.894531 118.726562 183.964844 121.054688 182.785156 123.261719 C 179.597656 129.191406 175.820312 134.769531 170.183594 138.679688 C 166.8125 141.023438 163.203125 142.527344 160.109375 144.570312 C 157.324219 146.414062 154.96875 148.703125 153.664062 152.5 C 152.132812 157.851562 149.886719 162.714844 147.285156 167.683594 C 142.613281 176.605469 136.746094 185.855469 131.839844 199.03125 C 130.117188 203.65625 128.816406 208.332031 127.917969 213.019531 C 127.984375 212.875 128.054688 212.730469 128.125 212.585938 C 130.273438 208.308594 133.917969 202.582031 137.679688 199.566406 C 142.144531 196.023438 149.210938 193.070312 154.210938 190.046875 C 156.242188 188.816406 157.976562 187.332031 159.699219 185.726562 C 160.074219 185.378906 160.550781 184.785156 161.054688 184.289062 C 161.445312 183.898438 161.863281 183.589844 162.253906 183.441406 C 162.507812 183.34375 162.671875 183.410156 162.773438 183.464844 C 162.941406 183.550781 163.050781 183.703125 163.050781 183.964844 C 163.058594 184.042969 163.027344 184.164062 162.953125 184.289062 C 162.867188 184.4375 162.664062 184.691406 162.59375 184.835938 C 162.363281 185.253906 162.132812 185.648438 161.921875 186.066406 C 161.273438 187.292969 160.789062 188.609375 160.21875 189.871094 C 159.996094 190.367188 159.753906 190.863281 159.527344 191.339844 C 159.59375 191.433594 159.605469 191.574219 159.511719 191.660156 C 159.363281 191.832031 159.234375 192 159.085938 192.171875 C 158.101562 194.023438 157.027344 195.761719 155.8125 197.472656 C 155.878906 197.566406 155.886719 197.707031 155.792969 197.792969 C 155.171875 198.578125 154.527344 199.34375 153.839844 200.054688 C 153.617188 200.332031 153.378906 200.628906 153.140625 200.90625 C 148.675781 206.351562 143.148438 209.550781 137.160156 213.046875 C 135.085938 214.257812 132.847656 215.363281 130.910156 216.78125 C 129.050781 218.15625 127.488281 219.8125 126.699219 222.167969 C 126.636719 222.375 126.570312 222.597656 126.527344 222.800781 C 125.625 234.050781 126.75 245.410156 129.351562 256.722656 C 129.351562 247.378906 134.472656 236.90625 139.601562 229.851562 C 139.710938 229.707031 139.820312 229.558594 139.929688 229.410156 C 141.984375 226.578125 144.371094 224.1875 147.070312 221.96875 C 147.238281 221.816406 147.496094 221.519531 147.777344 221.277344 C 148.023438 221.058594 148.269531 220.863281 148.503906 220.785156 C 148.71875 220.710938 148.917969 220.695312 149.101562 220.761719 C 149.285156 220.828125 149.476562 220.953125 149.613281 221.203125 C 151.265625 224.363281 150.835938 229.238281 149.324219 234.308594 C 147.109375 241.789062 142.582031 249.699219 139.363281 253.035156 C 137.875 254.582031 135.683594 255.800781 133.828125 257.238281 C 132.3125 258.40625 131.027344 259.71875 130.640625 261.546875 C 133.738281 271.386719 140.929688 286.445312 147.367188 292.4375 C 147.6875 292.734375 147.707031 293.234375 147.410156 293.554688 C 147.167969 293.8125 146.8125 293.878906 146.503906 293.742188 C 146.464844 293.785156 146.40625 293.789062 146.367188 293.8125 C 146.429688 293.867188 146.476562 293.921875 146.539062 293.980469 C 146.648438 294.089844 146.640625 294.25 146.546875 294.359375 C 146.433594 294.464844 146.273438 294.457031 146.167969 294.367188 C 145.4375 293.660156 144.800781 292.886719 144.160156 292.089844 C 144.097656 292.015625 144.085938 291.898438 144.140625 291.8125 C 143.683594 291.285156 143.222656 290.738281 142.824219 290.1875 C 142.734375 290.074219 142.761719 289.894531 142.878906 289.824219 C 142.898438 289.824219 142.894531 289.804688 142.914062 289.800781 C 140.394531 286.464844 137.859375 282.167969 135.613281 277.691406 C 135.492188 277.640625 135.382812 277.527344 135.332031 277.390625 C 135.0625 276.691406 134.792969 276.007812 134.484375 275.351562 C 134.390625 275.179688 134.316406 274.984375 134.226562 274.808594 C 133.753906 273.84375 133.246094 272.902344 132.679688 271.980469 C 131.808594 271.566406 130.835938 271.375 129.867188 271.246094 C 128.777344 271.105469 127.6875 271.003906 126.648438 270.738281 C 118.433594 268.636719 112.011719 265.863281 106.074219 259.554688 C 105.398438 258.820312 101.75 254.304688 100.8125 252.113281 C 100.597656 251.628906 100.507812 251.214844 100.546875 250.953125 C 100.570312 250.710938 100.679688 250.542969 100.828125 250.414062 C 101.074219 250.195312 101.441406 250.066406 101.941406 250.03125 C 102.496094 249.992188 103.246094 250.097656 104.097656 250.273438 C 107.191406 250.96875 111.613281 252.929688 112.589844 253.417969 C 119.671875 257.003906 126.5 261.828125 131.359375 268.136719 L 131.335938 268.097656 C 130.773438 266.679688 130.230469 265.238281 129.742188 263.773438 C 129.335938 262.582031 128.949219 261.371094 128.601562 260.15625 C 128.492188 259.765625 128.382812 259.371094 128.273438 258.960938 C 128.21875 258.765625 128.183594 258.566406 128.128906 258.351562 C 128.070312 258.113281 128.015625 257.878906 127.957031 257.644531 C 127.785156 256.894531 127.609375 256.148438 127.457031 255.417969 C 127.089844 253.707031 126.746094 251.96875 126.4375 250.230469 C 126.296875 249.382812 126.15625 248.53125 126.015625 247.703125 C 125.9375 247.46875 125.859375 247.234375 125.78125 246.980469 C 125.742188 246.980469 125.722656 246.964844 125.679688 246.945312 C 111.53125 241.613281 99.746094 230.828125 96.09375 215.8125 C 95.890625 214.945312 94.367188 209.355469 93.890625 206.691406 C 93.753906 205.898438 93.734375 205.339844 93.796875 205.117188 C 93.875 204.832031 94.046875 204.699219 94.242188 204.644531 C 94.398438 204.59375 94.578125 204.578125 94.785156 204.683594 C 94.929688 204.753906 95.121094 204.878906 95.3125 205.046875 C 95.503906 205.210938 95.699219 205.417969 95.847656 205.507812 C 96.832031 206.136719 97.761719 206.808594 98.796875 207.3125 C 102.074219 208.914062 104.757812 210.601562 107.4375 213.085938 C 117.21875 222.175781 125.308594 242.394531 125.308594 242.394531 C 124 230.445312 124.554688 218.523438 127.644531 206.796875 C 127.644531 206.777344 127.644531 206.777344 127.640625 206.757812 C 127.402344 203.195312 125.796875 199.832031 123.765625 196.636719 C 121.691406 193.386719 119.1875 190.308594 117.179688 187.457031 C 113.652344 182.429688 111.222656 176.804688 110.125 170.765625 C 109.519531 167.410156 109.359375 164.058594 109.429688 160.632812 C 109.453125 159.613281 109.5 158.609375 109.546875 157.585938 C 109.558594 157.164062 109.585938 156.742188 109.617188 156.320312 C 109.613281 156.300781 109.574219 156.003906 109.5625 155.882812 C 109.570312 155.722656 109.605469 155.621094 109.660156 155.535156 C 109.730469 155.410156 109.84375 155.324219 109.960938 155.292969 C 110.078125 155.246094 110.238281 155.234375 110.421875 155.320312 C 110.652344 155.445312 110.890625 155.707031 111.097656 156.074219 C 111.398438 156.652344 111.644531 157.53125 111.851562 157.898438 C 112.773438 159.570312 113.917969 161.289062 115.125 162.78125 C 117.386719 165.535156 119.597656 167.875 121.132812 171.144531 C 124.640625 178.652344 124.851562 186.519531 126.152344 194.542969 C 126.664062 197.707031 127.703125 200.714844 128.507812 203.816406 C 129.054688 201.976562 129.683594 200.148438 130.347656 198.320312 C 133.898438 188.78125 137.953125 181.285156 141.699219 174.492188 C 141.695312 174.433594 141.691406 174.351562 141.707031 174.292969 C 142.546875 169.890625 141.570312 165.839844 139.929688 161.9375 C 138.257812 157.960938 135.902344 154.152344 134.023438 150.347656 C 131.375 144.957031 130.515625 137.839844 131.46875 131.96875 C 131.761719 130.1875 132.328125 126.707031 133.207031 125.0625 C 133.238281 124.917969 133.25 124.796875 133.277344 124.65625 C 133.308594 124.515625 133.441406 124.425781 133.582031 124.433594 C 133.726562 124.464844 133.816406 124.597656 133.804688 124.738281 C 133.925781 124.75 134.03125 124.820312 134.140625 124.933594 C 134.183594 124.992188 134.25 125.085938 134.28125 125.242188 C 134.3125 125.382812 134.3125 125.660156 134.363281 125.796875 C 134.472656 126.210938 134.640625 126.597656 134.769531 126.988281 C 135.175781 128.160156 135.710938 129.21875 136.269531 130.320312 C 137.953125 133.636719 140.339844 136.484375 141.402344 140.109375 C 143.324219 146.730469 142.078125 153.242188 142.085938 159.960938 C 142.089844 163.882812 143.144531 167.667969 143.308594 171.554688 C 144.191406 169.949219 145.054688 168.367188 145.863281 166.808594 C 152.820312 153.542969 157.152344 141.023438 151.6875 117.316406 Z M 131.015625 270.023438 C 131.015625 270.023438 131 270.042969 131 270.042969 C 131.039062 270.0625 131.058594 270.058594 131.101562 270.078125 Z M 105.5625 257.230469 C 106.203125 258.023438 106.726562 258.644531 106.925781 258.890625 C 112.710938 265.03125 118.988281 267.714844 126.980469 269.777344 C 127.285156 269.855469 127.609375 269.910156 127.933594 269.964844 C 127.441406 269.800781 126.945312 269.617188 126.472656 269.433594 C 124.789062 268.816406 123.105469 268.238281 121.472656 267.476562 C 116.773438 265.296875 111.867188 262.773438 107.847656 259.464844 C 107.015625 258.785156 106.296875 257.976562 105.5625 257.230469 Z M 104.015625 254.082031 C 105.285156 255.328125 106.6875 256.46875 108.105469 257.523438 C 111.40625 260.003906 114.9375 262.050781 118.527344 264.109375 C 121.96875 266.078125 125.671875 268.3125 129.527344 269.589844 C 128.449219 269.109375 127.402344 268.464844 126.367188 267.960938 C 124.601562 267.089844 122.824219 266.277344 121.109375 265.28125 C 118.898438 263.980469 116.785156 262.433594 114.660156 261.007812 C 112.117188 259.3125 109.605469 257.535156 107.027344 255.882812 C 106.042969 255.292969 104.964844 254.753906 104.015625 254.082031 Z M 130.441406 268.703125 C 125.679688 262.609375 119.039062 257.949219 112.144531 254.449219 C 111.207031 253.980469 106.910156 252.070312 103.898438 251.390625 C 103.1875 251.222656 102.539062 251.128906 102.0625 251.164062 C 102.023438 251.164062 101.984375 251.167969 101.945312 251.171875 C 102.53125 251.289062 103.089844 251.546875 103.683594 251.707031 C 104.335938 251.878906 105.039062 251.945312 105.695312 252.160156 C 107.5 252.769531 109.179688 253.867188 110.863281 254.742188 C 112.15625 255.429688 113.496094 256.011719 114.730469 256.761719 C 116.824219 258.03125 118.753906 259.550781 120.722656 261.007812 C 122.898438 262.632812 125.113281 264.210938 127.257812 265.914062 C 128.363281 266.816406 129.375 267.78125 130.441406 268.703125 Z M 102.125 251.757812 C 102.234375 251.871094 102.363281 251.980469 102.46875 252.074219 C 103.488281 252.597656 104.578125 253 105.59375 253.527344 C 106.613281 254.050781 107.5625 254.703125 108.5625 255.269531 C 109.648438 255.894531 110.785156 256.429688 111.855469 257.074219 C 114.199219 258.503906 116.421875 260.179688 118.710938 261.695312 C 122.15625 263.964844 125.675781 266.171875 129.210938 268.3125 C 128.464844 267.648438 127.714844 266.960938 126.929688 266.339844 C 124.804688 264.652344 122.589844 263.074219 120.414062 261.453125 C 118.46875 260.011719 116.558594 258.492188 114.464844 257.242188 C 113.230469 256.492188 111.890625 255.910156 110.621094 255.242188 C 108.976562 254.359375 107.316406 253.28125 105.535156 252.691406 C 104.898438 252.476562 104.214844 252.40625 103.5625 252.234375 C 103.070312 252.109375 102.597656 251.902344 102.125 251.757812 Z M 103.902344 253.328125 C 104.9375 254.132812 106.203125 254.742188 107.316406 255.441406 C 109.894531 257.09375 112.40625 258.871094 114.949219 260.566406 C 117.070312 261.996094 119.164062 263.542969 121.378906 264.820312 C 123.070312 265.800781 124.828125 266.613281 126.589844 267.464844 C 127.128906 267.726562 127.652344 268.027344 128.191406 268.308594 C 124.886719 266.308594 121.617188 264.246094 118.402344 262.136719 C 116.113281 260.644531 113.914062 258.984375 111.546875 257.554688 C 110.480469 256.914062 109.363281 256.375 108.277344 255.753906 C 107.296875 255.183594 106.347656 254.53125 105.332031 254.027344 C 104.875 253.777344 104.378906 253.554688 103.902344 253.328125 Z M 104.097656 254.914062 C 104.617188 255.496094 105.160156 256.078125 105.71875 256.617188 C 106.539062 257.4375 107.304688 258.324219 108.199219 259.058594 C 112.175781 262.328125 117.039062 264.835938 121.695312 267 C 122.832031 267.515625 123.984375 267.953125 125.136719 268.390625 C 122.753906 267.222656 120.433594 265.871094 118.242188 264.609375 C 114.652344 262.550781 111.101562 260.46875 107.78125 257.988281 C 106.507812 257.019531 105.253906 256.011719 104.097656 254.914062 Z M 147.984375 223.28125 C 146.515625 225.609375 145.429688 228.328125 144.058594 230.628906 C 138.890625 239.328125 134.355469 248.515625 131.339844 258.199219 C 135.429688 250.898438 138.90625 243.125 142.601562 235.636719 C 144.640625 231.507812 146.988281 227.734375 147.984375 223.28125 Z M 141.390625 229.421875 C 141.226562 229.636719 141.042969 229.867188 140.878906 230.101562 C 140.769531 230.25 140.660156 230.394531 140.550781 230.542969 C 135.347656 237.683594 130.128906 248.425781 130.527344 257.796875 C 131.148438 254.472656 132.335938 251.285156 133.320312 248.03125 C 135.246094 241.792969 137.640625 235.078125 141.390625 229.421875 Z M 148.816406 222.0625 C 148.78125 222.105469 148.761719 222.125 148.722656 222.167969 C 147.910156 227.210938 145.308594 231.320312 143.058594 235.863281 C 139.742188 242.566406 136.625 249.492188 133.066406 256.089844 C 138.335938 248.507812 143.589844 240.425781 146.394531 231.660156 C 147.445312 228.503906 148.617188 225.398438 148.816406 222.0625 Z M 147.34375 223.289062 C 140.222656 229.589844 136.53125 239.359375 133.851562 248.195312 C 133.046875 250.851562 132.09375 253.460938 131.429688 256.152344 C 134.453125 247.109375 138.75 238.515625 143.597656 230.34375 C 144.917969 228.125 145.96875 225.550781 147.34375 223.289062 Z M 149.710938 226.679688 C 149.429688 228.597656 148.792969 230.566406 148.355469 232.21875 C 147.0625 237.273438 142.234375 246.542969 138.835938 250.710938 C 137.585938 252.222656 136.3125 253.675781 135.078125 255.164062 C 136.394531 254.269531 137.710938 253.394531 138.695312 252.363281 C 141.820312 249.09375 146.238281 241.351562 148.40625 234.054688 C 149.160156 231.460938 149.65625 228.921875 149.710938 226.679688 Z M 149.203125 223.554688 C 148.808594 226.382812 147.808594 229.097656 146.925781 231.839844 C 144.265625 240.117188 139.464844 247.804688 134.488281 255.007812 C 135.773438 253.453125 137.105469 251.957031 138.390625 250.382812 C 141.753906 246.277344 146.527344 237.109375 147.804688 232.097656 C 148.179688 230.648438 148.71875 228.992188 149.039062 227.308594 C 149.304688 226.027344 149.410156 224.738281 149.203125 223.554688 Z M 124.980469 245.558594 C 124.980469 245.558594 124.980469 245.578125 124.980469 245.578125 L 125.042969 245.59375 Z M 97.925781 218.179688 C 98.292969 219.351562 98.714844 220.480469 99.195312 221.605469 C 102.992188 227.890625 110.144531 234.09375 114.957031 238.363281 C 117.992188 241.042969 120.40625 243.75 124.246094 245.109375 C 116.757812 240.875 111.605469 233.828125 105.855469 227.625 C 102.949219 224.535156 100 221.6875 97.925781 218.179688 Z M 96.027344 211.015625 C 96.5625 213.15625 97.109375 215.175781 97.222656 215.648438 L 97.222656 215.667969 C 99.238281 220.242188 102.796875 223.566406 106.246094 227.253906 C 111.519531 232.914062 116.261719 239.289062 122.753906 243.558594 C 120.125 241.25 117.476562 238.902344 115.128906 236.351562 C 110.785156 231.625 107.210938 226.226562 103.359375 221.085938 C 100.566406 217.367188 97.96875 214.65625 96.027344 211.015625 Z M 98.332031 208.347656 C 103.015625 213.046875 106.289062 219.011719 109.96875 224.523438 C 114.414062 231.203125 119.378906 237.324219 124.582031 243.40625 C 124.507812 243.171875 124.410156 242.9375 124.3125 242.6875 C 123.671875 242.132812 123.058594 241.4375 122.484375 240.65625 C 120.996094 238.644531 119.714844 236.160156 118.609375 234.679688 C 115 229.878906 111.492188 225.113281 108.339844 220.003906 C 106.117188 216.363281 104.335938 212.773438 101.285156 209.914062 C 100.367188 209.378906 99.410156 208.867188 98.414062 208.382812 C 98.375 208.363281 98.355469 208.367188 98.332031 208.347656 Z M 95.949219 206.921875 C 103.820312 218.609375 111.09375 230.664062 121.234375 240.546875 C 122.117188 241.40625 122.90625 242.347656 123.730469 243.246094 C 118.679688 237.3125 113.863281 231.324219 109.511719 224.816406 C 105.402344 218.65625 101.816406 211.976562 96.199219 207.082031 C 96.117188 207.027344 96.03125 206.972656 95.949219 206.921875 Z M 100.683594 224.738281 C 104.828125 232.519531 111.476562 238.675781 119.308594 242.929688 C 117.695312 241.6875 116.230469 240.230469 114.585938 238.769531 C 110.476562 235.109375 104.671875 230.070312 100.683594 224.738281 Z M 94.996094 206.46875 C 95.0625 206.824219 95.132812 207.238281 95.226562 207.710938 C 95.28125 207.949219 95.320312 208.1875 95.378906 208.421875 C 97.355469 213.339844 100.410156 216.316406 103.757812 220.773438 C 107.589844 225.898438 111.160156 231.277344 115.484375 236.003906 C 117.589844 238.292969 119.945312 240.402344 122.296875 242.492188 C 121.816406 241.964844 121.339844 241.441406 120.824219 240.9375 C 110.140625 230.472656 102.605469 217.597656 94.191406 205.289062 Z M 103.132812 211.078125 C 105.378906 213.675781 106.9375 216.683594 108.800781 219.75 C 111.933594 224.863281 115.4375 229.609375 119.027344 234.386719 C 120.136719 235.867188 121.414062 238.355469 122.902344 240.367188 C 123.167969 240.726562 123.433594 241.070312 123.714844 241.386719 C 121.863281 237.902344 119.625 234.644531 117.601562 231.269531 C 113.609375 224.539062 109.726562 217.859375 104.503906 212.058594 C 104.058594 211.710938 103.59375 211.386719 103.132812 211.078125 Z M 107.082031 214.253906 C 111.28125 219.449219 114.617188 225.1875 118.078125 230.957031 C 119.535156 233.371094 121.085938 235.738281 122.542969 238.171875 C 118.839844 229.320312 113.890625 220.699219 107.082031 214.253906 Z M 159.078125 188.773438 C 155.820312 191.828125 151.640625 193.773438 148.027344 196.355469 C 141.316406 201.125 135.398438 206.976562 130.730469 213.773438 C 129.847656 215.078125 128.71875 216.339844 127.796875 217.6875 C 127.761719 217.769531 127.707031 217.835938 127.671875 217.917969 C 127.835938 217.707031 128.003906 217.511719 128.167969 217.300781 C 129.394531 215.753906 130.6875 214.277344 131.980469 212.785156 C 137.113281 206.890625 142.742188 201.761719 148.957031 197.007812 C 152.292969 194.445312 156.339844 192.089844 159.078125 188.773438 Z M 141.21875 198.429688 C 140.203125 199.066406 139.253906 199.734375 138.402344 200.394531 C 134.753906 203.320312 131.214844 208.878906 129.117188 213.050781 C 128.59375 214.089844 128.074219 215.167969 127.59375 216.304688 C 128.5625 214.472656 129.714844 212.730469 130.789062 211.011719 C 133.625 206.542969 137.101562 202.03125 141.21875 198.429688 Z M 155.0625 196.785156 C 153.742188 198.160156 152.355469 199.480469 150.925781 200.726562 C 147.371094 203.84375 143.222656 206.445312 139.378906 209.1875 C 136.984375 210.898438 134.671875 212.648438 132.453125 214.589844 C 133.695312 213.800781 134.9375 213.007812 136.132812 212.140625 C 139.019531 210.03125 141.75 207.695312 144.707031 205.679688 C 146.707031 204.3125 148.933594 203.3125 150.953125 201.925781 C 151.457031 201.386719 151.9375 200.851562 152.414062 200.257812 C 153.351562 199.109375 154.246094 197.945312 155.0625 196.785156 Z M 158.085938 191.90625 C 157.648438 192.476562 157.1875 193.03125 156.703125 193.503906 C 155.269531 194.96875 153.601562 196.25 152.058594 197.601562 C 147.492188 201.65625 142.703125 205.382812 137.875 209.117188 C 135.980469 210.59375 134.214844 212.140625 132.511719 213.785156 C 134.621094 211.992188 136.785156 210.355469 139.046875 208.730469 C 142.886719 205.992188 147 203.390625 150.554688 200.292969 C 152.773438 198.351562 154.882812 196.238281 156.859375 194.015625 C 157.292969 193.34375 157.699219 192.632812 158.085938 191.90625 Z M 158.949219 189.722656 C 156.207031 192.742188 152.429688 194.996094 149.285156 197.40625 C 143.109375 202.132812 137.496094 207.222656 132.402344 213.113281 C 132.257812 213.285156 132.109375 213.453125 131.960938 213.605469 C 133.734375 211.875 135.574219 210.242188 137.5625 208.699219 C 142.371094 204.949219 147.164062 201.238281 151.730469 197.207031 C 153.253906 195.855469 154.921875 194.59375 156.335938 193.132812 C 157.265625 192.164062 158.160156 190.980469 158.949219 189.722656 Z M 147.96875 194.679688 C 146.8125 195.285156 145.636719 195.890625 144.5 196.511719 C 139.117188 200.34375 134.71875 205.863281 131.289062 211.273438 C 131.058594 211.652344 130.824219 212.007812 130.570312 212.386719 C 130.714844 212.175781 130.84375 211.988281 130.988281 211.796875 C 135.496094 205.269531 141.464844 199.351562 147.96875 194.679688 Z M 149.21875 203.628906 C 147.796875 204.453125 146.351562 205.199219 144.996094 206.117188 C 142.539062 207.777344 140.234375 209.683594 137.886719 211.476562 C 141.972656 209.078125 145.824219 206.757812 149.21875 203.628906 Z M 160.199219 186.8125 C 158.996094 187.917969 157.773438 188.96875 156.460938 189.902344 C 156.460938 189.902344 156.484375 189.921875 156.484375 189.921875 C 156.554688 190.054688 156.523438 190.21875 156.390625 190.289062 C 154.050781 191.699219 151.589844 192.796875 149.34375 194.359375 C 144.21875 197.894531 139.394531 202.242188 135.304688 207.0625 C 139 202.871094 143.191406 199.128906 147.753906 195.894531 C 151.769531 193.042969 156.5 190.960938 159.847656 187.234375 C 159.960938 187.109375 160.070312 186.960938 160.199219 186.8125 Z M 110.957031 158.5625 C 111.148438 159.507812 111.375 160.453125 111.722656 161.347656 C 112.210938 162.613281 113.011719 163.714844 113.425781 165.003906 C 115.816406 172.550781 118.308594 180.152344 121.320312 187.472656 C 122.222656 189.6875 123.257812 191.835938 124.3125 193.976562 C 124.453125 194.269531 124.617188 194.574219 124.777344 194.863281 C 124.148438 193.390625 123.8125 191.792969 123.324219 190.289062 C 122.292969 187.105469 121.203125 183.960938 120.171875 180.777344 C 118.472656 175.519531 116.761719 170.183594 114.535156 165.125 C 113.671875 163.167969 112.457031 161.292969 111.441406 159.40625 C 111.257812 159.101562 111.117188 158.832031 110.957031 158.5625 Z M 114.457031 163.75 C 114.644531 164.136719 114.832031 164.503906 115 164.890625 C 117.226562 169.96875 118.9375 175.324219 120.660156 180.601562 C 121.691406 183.785156 122.78125 186.929688 123.8125 190.113281 C 124.066406 190.875 124.265625 191.679688 124.503906 192.464844 C 124.167969 190.886719 123.875 189.308594 123.460938 187.757812 C 122.417969 183.855469 121.039062 180.035156 119.957031 176.132812 C 119.0625 172.894531 118.359375 169.007812 116.449219 166.125 C 115.789062 165.332031 115.136719 164.558594 114.457031 163.75 Z M 111.453125 171.6875 C 112.59375 177.207031 114.886719 182.339844 118.121094 186.964844 C 119.351562 188.71875 120.742188 190.515625 122.117188 192.398438 C 121.539062 191.320312 120.960938 190.242188 120.363281 189.183594 C 118.421875 185.84375 116.539062 182.5 114.765625 179.050781 C 113.511719 176.640625 112.355469 174.203125 111.453125 171.6875 Z M 110.605469 159.488281 L 110.589844 159.808594 C 110.632812 160.667969 110.714844 161.539062 110.855469 162.390625 C 111.199219 164.367188 111.96875 166.128906 112.585938 168.007812 C 113.398438 170.40625 114.097656 172.875 115.050781 175.246094 C 115.855469 177.230469 116.871094 179.097656 117.695312 181.078125 C 119.03125 184.320312 120.5 187.492188 122.085938 190.597656 C 121.636719 189.632812 121.226562 188.660156 120.8125 187.671875 C 117.800781 180.328125 115.308594 172.710938 112.898438 165.164062 C 112.484375 163.894531 111.6875 162.789062 111.214844 161.542969 C 110.945312 160.863281 110.753906 160.15625 110.601562 159.449219 Z M 118.234375 168.414062 C 119.234375 170.863281 119.8125 173.582031 120.464844 175.976562 C 121.546875 179.875 122.925781 183.699219 123.96875 187.601562 C 124.105469 188.09375 124.222656 188.582031 124.339844 189.09375 C 123.585938 183.167969 122.847656 177.363281 120.21875 171.753906 C 119.648438 170.535156 118.96875 169.441406 118.234375 168.414062 Z M 110.566406 163.613281 C 110.609375 165.027344 110.691406 166.441406 110.832031 167.851562 C 111.75 171.6875 113.390625 175.269531 115.230469 178.816406 C 116.695312 181.648438 118.214844 184.398438 119.796875 187.164062 C 118.875 185.230469 118.015625 183.273438 117.1875 181.273438 C 116.367188 179.3125 115.347656 177.425781 114.546875 175.445312 C 113.59375 173.074219 112.875 170.605469 112.078125 168.183594 C 111.566406 166.640625 110.957031 165.164062 110.566406 163.613281 Z M 132.207031 137.15625 C 132.226562 141.574219 133.1875 146.226562 135.039062 149.992188 C 136.472656 152.910156 138.183594 155.824219 139.660156 158.816406 C 139.507812 158.347656 139.335938 157.902344 139.144531 157.476562 C 136.441406 151.371094 133.3125 144.917969 132.347656 138.246094 C 132.300781 137.890625 132.253906 137.511719 132.207031 137.15625 Z M 138.179688 135.683594 C 138.589844 137.453125 138.703125 139.304688 138.878906 141.152344 C 139.097656 143.617188 139.476562 146.109375 139.539062 148.585938 C 139.578125 149.960938 139.582031 151.382812 139.644531 152.777344 C 139.980469 154.394531 140.320312 156.03125 140.675781 157.644531 C 140.675781 157.625 140.671875 157.585938 140.671875 157.566406 C 140.449219 154.800781 140.671875 152.0625 140.652344 149.304688 C 140.636719 145.285156 140.296875 141.109375 139.074219 137.257812 C 138.777344 136.71875 138.476562 136.199219 138.179688 135.683594 Z M 140.4375 140.578125 C 140.984375 143.460938 141.160156 146.40625 141.167969 149.285156 C 141.175781 151.828125 140.996094 154.359375 141.140625 156.890625 C 141.382812 151.410156 142.011719 146.023438 140.4375 140.578125 Z M 132.867188 130.527344 C 132.765625 131.074219 132.679688 131.5625 132.613281 132.007812 C 132.523438 134.054688 132.570312 136.089844 132.863281 138.1875 C 133.816406 144.71875 136.835938 151.023438 139.511719 157.007812 C 139.445312 156.691406 139.402344 156.375 139.359375 156.039062 C 138.964844 154.746094 138.53125 153.460938 138.117188 152.167969 C 136.882812 148.398438 135.273438 144.695312 134.3125 140.824219 C 133.507812 137.460938 132.917969 133.984375 132.867188 130.527344 Z M 133.527344 127.519531 L 133.511719 127.578125 C 133.148438 131.96875 133.792969 136.421875 134.84375 140.683594 C 135.785156 144.539062 137.390625 148.222656 138.625 151.992188 C 138.78125 152.5 138.960938 153.007812 139.136719 153.515625 C 139.121094 153.296875 139.105469 153.078125 139.109375 152.855469 C 138.039062 147.753906 137.007812 142.648438 135.878906 137.570312 C 135.523438 135.996094 135.226562 134.394531 134.832031 132.824219 C 134.367188 131.078125 133.816406 129.296875 133.542969 127.476562 Z M 134.289062 128.664062 C 134.589844 130.023438 134.984375 131.351562 135.324219 132.6875 C 135.738281 134.257812 136.035156 135.859375 136.390625 137.453125 C 137.308594 141.566406 138.148438 145.707031 139.007812 149.824219 C 138.996094 149.40625 138.988281 149.003906 138.976562 148.585938 C 138.917969 146.128906 138.539062 143.636719 138.320312 141.171875 C 138.097656 138.667969 137.972656 136.117188 137.027344 133.824219 C 136.4375 132.867188 135.867188 131.910156 135.355469 130.90625 C 135 130.171875 134.625 129.4375 134.289062 128.664062 Z M 156.648438 145.664062 C 156.613281 145.703125 156.59375 145.726562 156.554688 145.769531 C 156.410156 145.980469 156.269531 146.210938 156.125 146.421875 C 156.105469 146.441406 156.085938 146.464844 156.066406 146.484375 C 156.050781 146.527344 156.035156 146.566406 156.015625 146.589844 C 156.277344 146.308594 156.535156 146.050781 156.816406 145.789062 C 156.777344 145.773438 156.734375 145.757812 156.695312 145.738281 C 156.671875 145.71875 156.652344 145.703125 156.648438 145.664062 Z M 170.628906 126.625 C 168.074219 128.648438 165.605469 130.710938 163.445312 133.226562 C 161.734375 135.25 160.453125 137.726562 159.136719 140 C 158.304688 141.460938 157.492188 142.980469 156.726562 144.515625 L 156.777344 144.433594 C 157.558594 143.296875 158.378906 142.195312 159.195312 141.097656 C 159.707031 140.378906 160.234375 139.660156 160.742188 138.945312 C 163.171875 135.527344 165.332031 132.191406 168.1875 129.101562 C 168.96875 128.285156 169.789062 127.445312 170.628906 126.625 Z M 183.023438 120.484375 C 180.035156 125.621094 176.082031 130.128906 171.542969 134 C 168.714844 136.382812 165.785156 138.738281 162.871094 141.03125 C 161.867188 141.800781 160.847656 142.597656 159.910156 143.464844 C 160.425781 143.128906 160.960938 142.808594 161.5 142.507812 C 161.996094 142.152344 162.488281 141.796875 162.984375 141.441406 C 166.925781 138.734375 170.601562 135.628906 174.085938 132.375 C 175.957031 130.617188 178.015625 128.925781 179.546875 126.855469 C 180.367188 125.515625 181.148438 124.140625 181.910156 122.765625 C 182.292969 121.996094 182.660156 121.25 183.023438 120.484375 Z M 181.203125 122.394531 C 177.644531 126.816406 173.167969 130.480469 168.757812 134.179688 C 166.078125 136.414062 163.582031 138.976562 161.167969 141.492188 C 160.792969 141.878906 160.421875 142.246094 160.027344 142.636719 C 160.839844 141.9375 161.691406 141.273438 162.542969 140.613281 C 165.457031 138.339844 168.386719 135.988281 171.214844 133.601562 C 175.039062 130.324219 178.445312 126.578125 181.203125 122.394531 Z M 183.375 118.417969 C 182.164062 119.683594 180.890625 120.859375 179.640625 122.089844 C 176.390625 125.285156 173.246094 128.515625 169.890625 131.597656 C 167.582031 133.726562 165.222656 135.917969 163.132812 138.25 C 162.019531 139.492188 160.953125 140.75 159.863281 142.007812 C 160.160156 141.707031 160.460938 141.40625 160.757812 141.101562 C 163.195312 138.585938 165.6875 136.003906 168.40625 133.746094 C 173.953125 129.144531 179.597656 124.550781 183.375 118.417969 Z M 184.15625 116.78125 C 182.914062 117.609375 181.652344 118.421875 180.484375 119.386719 C 176.636719 122.625 173.269531 126.371094 169.769531 129.964844 C 166.234375 133.585938 162.746094 137.378906 159.660156 141.421875 L 159.605469 141.507812 C 160.640625 140.292969 161.691406 139.074219 162.742188 137.878906 C 164.851562 135.523438 167.234375 133.332031 169.539062 131.183594 C 172.894531 128.097656 176.019531 124.871094 179.269531 121.675781 C 180.914062 120.097656 182.640625 118.53125 184.15625 116.78125 Z M 177.394531 130.011719 C 176.421875 130.945312 175.40625 131.835938 174.433594 132.75 C 171.566406 135.417969 168.574219 137.996094 165.421875 140.324219 C 166.828125 139.5625 168.246094 138.738281 169.617188 137.777344 C 172.722656 135.632812 175.230469 132.972656 177.394531 130.011719 Z M 176.511719 122.277344 C 176.074219 122.566406 175.636719 122.859375 175.195312 123.152344 C 172.941406 125.136719 170.578125 127.328125 168.59375 129.472656 C 166.796875 131.421875 165.265625 133.496094 163.777344 135.601562 C 165.589844 133.550781 167.484375 131.554688 169.402344 129.59375 C 171.765625 127.160156 174.085938 124.652344 176.511719 122.277344 Z M 154.136719 90.996094 C 154.351562 93.660156 154.386719 96.359375 154.261719 99.046875 C 154.078125 103.121094 153.707031 107.109375 153.265625 111.203125 C 153.074219 112.957031 152.882812 114.75 152.890625 116.53125 C 153.382812 113.933594 154.195312 111.355469 154.617188 108.605469 C 155.519531 102.835938 155.378906 96.785156 154.136719 90.996094 Z M 147.179688 88.261719 C 146.542969 94.386719 146.925781 100.78125 148.46875 106.570312 C 149.207031 109.335938 150.222656 112.003906 151.238281 114.691406 C 150.652344 112.132812 150.144531 109.570312 149.640625 107.003906 C 148.425781 100.734375 147.273438 94.554688 147.179688 88.261719 Z M 147.882812 83.628906 C 147.882812 83.648438 147.863281 83.671875 147.867188 83.691406 C 147.257812 91.574219 148.667969 99.15625 150.171875 106.90625 C 150.652344 109.371094 151.148438 111.816406 151.707031 114.277344 C 151.707031 113.996094 151.726562 113.714844 151.75 113.453125 C 151.320312 111.144531 150.773438 108.824219 150.386719 106.53125 C 149.4375 100.917969 148.847656 95.28125 148.296875 89.601562 C 148.078125 87.4375 147.898438 85.527344 147.882812 83.628906 Z M 152.925781 86.445312 C 153.316406 91.515625 153.226562 96.625 152.851562 101.632812 C 152.648438 104.347656 152.886719 107.351562 152.621094 110.070312 C 152.550781 110.734375 152.476562 111.378906 152.402344 112.003906 C 152.433594 112.441406 152.46875 112.882812 152.519531 113.316406 C 152.585938 112.59375 152.65625 111.886719 152.742188 111.160156 C 153.183594 107.066406 153.554688 103.082031 153.742188 99.027344 C 153.929688 95.03125 153.765625 91.082031 153.136719 87.128906 C 153.085938 86.972656 153.054688 86.835938 153.003906 86.699219 C 152.980469 86.621094 152.953125 86.523438 152.925781 86.445312 Z M 150.324219 73.75 C 149.246094 81.191406 149.722656 88.898438 150.421875 96.308594 C 150.796875 100.378906 151.148438 104.394531 151.683594 108.4375 C 151.667969 108.199219 151.671875 107.976562 151.652344 107.738281 C 151.441406 103.996094 151.292969 100.304688 151.242188 96.546875 C 151.164062 89.730469 150.683594 80.644531 150.324219 73.75 Z M 151.105469 78.433594 C 151.402344 84.433594 151.710938 91.191406 151.78125 96.546875 C 151.832031 100.285156 151.980469 103.976562 152.191406 107.699219 C 152.203125 107.859375 152.214844 108.019531 152.226562 108.179688 C 152.285156 105.992188 152.179688 103.679688 152.34375 101.566406 C 152.789062 95.574219 152.820312 89.371094 152.101562 83.324219 C 151.703125 81.730469 151.382812 80.074219 151.105469 78.433594 Z M 149.445312 76.796875 C 149.105469 78.179688 148.804688 79.5625 148.46875 80.945312 C 148.296875 83.820312 148.523438 86.402344 148.828125 89.523438 C 149.375 95.082031 149.9375 100.621094 150.855469 106.117188 C 150.480469 102.863281 150.183594 99.625 149.886719 96.347656 C 149.300781 89.949219 148.855469 83.277344 149.445312 76.796875 Z M 149.445312 76.796875 " fill-opacity="1" fill-rule="evenodd"/></g></g></g></svg>